<?xml version="1.0" standalone="no"?>
<!DOCTYPE svg PUBLIC "-//W3C//DTD SVG 20010904//EN"
 "http://www.w3.org/TR/2001/REC-SVG-20010904/DTD/svg10.dtd">
<svg version="1.0" xmlns="http://www.w3.org/2000/svg"
 width="512.000000pt" height="512.000000pt" viewBox="0 0 512.000000 512.000000"
 preserveAspectRatio="xMidYMid meet">

<g transform="translate(0.000000,512.000000) scale(0.100000,-0.100000)"
fill="#000000" stroke="none">
<path d="M397 5104 c-97 -23 -167 -63 -242 -139 -77 -77 -116 -145 -140 -247
-22 -95 -22 -4221 0 -4316 24 -101 63 -170 140 -248 77 -77 142 -114 247 -139
95 -22 4221 -22 4316 0 174 41 303 156 373 330 l24 60 3 2123 c3 2324 6 2183
-55 2310 -36 75 -150 189 -225 225 -126 60 12 57 -2283 56 -1764 -1 -2109 -3
-2158 -15z m3943 -971 c0 -5 -267 -714 -593 -1578 l-593 -1570 -161 -3 -161
-2 45 117 c24 65 290 768 590 1563 300 795 549 1453 554 1463 9 15 27 17 164
17 85 0 155 -3 155 -7z m-2953 -1285 c96 -36 171 -95 283 -226 134 -157 162
-177 246 -177 71 0 105 19 138 75 16 27 20 58 24 186 l5 154 138 0 139 0 0
-153 c0 -218 -26 -304 -120 -397 -82 -83 -179 -120 -315 -120 -184 0 -292 60
-448 250 -120 147 -167 180 -254 180 -55 0 -102 -24 -130 -67 -15 -22 -19 -55
-23 -188 l-5 -160 -140 0 -140 0 -3 125 c-5 210 23 316 107 412 48 54 139 104
224 123 78 18 201 11 274 -17z"/>
</g>
</svg>
